<svg xmlns="http://www.w3.org/2000/svg" xmlns:xlink="http://www.w3.org/1999/xlink" viewBox="0 0 484.21 238.16"><defs><style>.cls-1{isolation:isolate;}.cls-2,.cls-3,.cls-4{fill:#57ba65;}.cls-3{font-size:110px;}.cls-3,.cls-4{font-family:ElectroShackle, Electro Shackle;}.cls-4{font-size:100px;}.cls-5{opacity:0.3;mix-blend-mode:multiply;}.cls-6{fill:url(#Dégradé_sans_nom_13);}.cls-7{fill:url(#Dégradé_sans_nom_13-2);}.cls-8{fill:url(#Dégradé_sans_nom_13-3);}.cls-9{fill:url(#Dégradé_sans_nom_13-4);}.cls-10{fill:url(#Dégradé_sans_nom_13-5);}.cls-11{fill:url(#Dégradé_sans_nom_13-6);}</style><linearGradient id="Dégradé_sans_nom_13" x1="46.08" y1="101.7" x2="66.9" y2="116.08" gradientUnits="userSpaceOnUse"><stop offset="0" stop-color="#fff" stop-opacity="0"/><stop offset="0.28" stop-color="#a6afa7" stop-opacity="0.38"/><stop offset="0.71" stop-color="#3c4e3d" stop-opacity="0.84"/><stop offset="1" stop-color="#152b17"/></linearGradient><linearGradient id="Dégradé_sans_nom_13-2" x1="134.25" y1="158.31" x2="158.3" y2="158.31" gradientTransform="translate(-57.89 236.02) rotate(-60.09)" xlink:href="#Dégradé_sans_nom_13"/><linearGradient id="Dégradé_sans_nom_13-3" x1="187.07" y1="235.53" x2="210.9" y2="235.53" gradientTransform="translate(454.38 78.7) rotate(119.91)" xlink:href="#Dégradé_sans_nom_13"/><linearGradient id="Dégradé_sans_nom_13-4" x1="114.8" y1="93.67" x2="138.49" y2="93.67" xlink:href="#Dégradé_sans_nom_13"/><linearGradient id="Dégradé_sans_nom_13-5" x1="253.52" y1="75.72" x2="277.68" y2="75.72" gradientTransform="translate(438.65 141.13) rotate(180)" xlink:href="#Dégradé_sans_nom_13"/><linearGradient id="Dégradé_sans_nom_13-6" x1="188.6" y1="87.9" x2="209.42" y2="102.28" gradientTransform="translate(303.11 230.02) rotate(180)" xlink:href="#Dégradé_sans_nom_13"/></defs><title>logo-trio</title><g class="cls-1"><g id="Calque_1" data-name="Calque 1"><path class="cls-2" d="M165,232.3,13,149.19,161,59ZM59.84,148.08l80.8,44.16-2.15-92.06Z"/><text class="cls-3" transform="translate(220.93 114.73)">TRIO</text><text class="cls-4" transform="translate(220.93 199.03)">C</text><text class="cls-4" transform="translate(290.12 199.03)">O</text><text class="cls-4" transform="translate(363.04 199.03)">M</text><path class="cls-2" d="M163.83,180.94,11.75,97.83l148-90.15ZM58.63,96.73l80.81,44.16-2.16-92.06Z"/><g class="cls-5"><polygon class="cls-6" points="79.95 108.38 56.47 95.55 33.35 109.63 56.84 122.47 79.95 108.38"/></g><g class="cls-5"><polygon class="cls-7" points="164.48 208.41 163.83 180.94 140.07 167.92 140.69 195.38 164.48 208.41"/></g><g class="cls-5"><polygon class="cls-8" points="138.8 113.65 139.44 140.84 163.2 153.84 162.56 126.64 138.8 113.65"/></g><path class="cls-2" d="M208.94,205.56,56.85,122.44l148-90.15Zm-105.2-84.21,80.81,44.16-2.15-92.06Z"/><g class="cls-5"><polygon class="cls-9" points="115.44 114.22 138.49 100.19 137.85 73.12 114.8 87.18 115.44 114.22"/></g><g class="cls-5"><polygon class="cls-10" points="184.5 44.72 160.97 59.03 161.62 86.1 185.13 71.68 184.5 44.72"/></g><g class="cls-5"><polygon class="cls-11" points="80.64 135.44 104.11 148.28 127.24 134.19 103.74 121.35 80.64 135.44"/></g></g></g></svg>